<svg width="136" height="39" viewBox="0 0 136 39" fill="none" xmlns="http://www.w3.org/2000/svg">
<g id="APK" clip-path="url(#clip0_106_112)">
<path id="Vector" d="M130.7 38.5H5.2C2.6 38.5 0.5 36.505 0.5 34.035V4.965C0.5 2.495 2.6 0.5 5.2 0.5H130.7C133.3 0.5 135.5 2.495 135.5 4.965V33.94C135.5 36.505 133.3 38.5 130.7 38.5Z" fill="black"/>
<path id="Vector_2" d="M134.498 34.035C134.498 36.03 132.798 37.645 130.698 37.645H5.19795C3.09795 37.645 1.39795 36.03 1.39795 34.035V4.96501C1.39795 2.97001 3.09795 1.35501 5.19795 1.35501H130.698C132.798 1.35501 134.498 2.97001 134.498 4.96501V34.035Z" fill="black"/>
<path id="Vector_3" d="M79.7731 13.09L74.9101 27.563H71.5L77.875 10.5H80.055L79.7731 13.09ZM83.84 27.563L78.9531 13.09L78.6601 10.5H80.852L87.2621 27.563H83.84ZM83.6171 21.223V23.766H74.465V21.223H83.6171ZM95.5821 21.34H91.1881V18.809H95.5821C96.3011 18.809 96.8821 18.691 97.3281 18.457C97.7811 18.215 98.1131 17.887 98.3241 17.473C98.535 17.051 98.6411 16.57 98.6411 16.031C98.6411 15.508 98.535 15.02 98.3241 14.566C98.1087 14.1083 97.762 13.725 97.3281 13.465C96.8831 13.184 96.3011 13.043 95.5821 13.043H92.2421V27.563H89.0201V10.5H95.5831C96.9111 10.5 98.0441 10.738 98.9821 11.215C99.9271 11.684 100.646 12.335 101.138 13.172C101.638 14 101.888 14.945 101.888 16.008C101.888 17.109 101.638 18.058 101.138 18.856C100.646 19.652 99.9271 20.266 98.9821 20.696C98.0441 21.125 96.9111 21.34 95.5821 21.34ZM107.641 10.5V27.563H104.418V10.5H107.641ZM117.883 10.5L111.039 18.82L107.125 23.004L106.551 19.875L109.27 16.348L113.934 10.5H117.883ZM114.297 27.563L108.988 19.57L111.297 17.484L118.129 27.562L114.297 27.563ZM21.2721 20.392H22.1471C22.1086 20.7881 21.9859 21.1713 21.7871 21.516C21.5931 21.847 21.3171 22.11 20.9631 22.304C20.6071 22.495 20.1641 22.591 19.6331 22.591C19.2441 22.591 18.8911 22.518 18.5721 22.372C18.2583 22.2278 17.9801 22.0165 17.7571 21.753C17.5205 21.4665 17.3413 21.1372 17.2291 20.783C17.1028 20.373 17.0411 19.9459 17.0461 19.517V18.857C17.0461 18.393 17.1071 17.972 17.2291 17.596C17.3531 17.216 17.5311 16.891 17.7611 16.621C17.9951 16.351 18.2761 16.143 18.6041 15.997C18.9532 15.8472 19.3301 15.7729 19.7101 15.779C20.2111 15.779 20.6351 15.873 20.9801 16.061C21.3271 16.249 21.5961 16.511 21.7871 16.844C21.9811 17.175 22.1011 17.559 22.1471 17.996H21.2721C21.2395 17.7191 21.1597 17.4499 21.0361 17.2C20.9272 16.9817 20.756 16.8007 20.5441 16.68C20.3311 16.559 20.0541 16.498 19.7101 16.498C19.4411 16.4927 19.1746 16.5506 18.9321 16.667C18.7101 16.7796 18.5181 16.9435 18.3721 17.145C18.215 17.3695 18.1007 17.621 18.0351 17.887C17.9561 18.2008 17.9177 18.5234 17.9211 18.847V19.517C17.9211 19.842 17.9541 20.147 18.0211 20.433C18.0911 20.718 18.1951 20.968 18.3351 21.184C18.4751 21.399 18.6521 21.57 18.8681 21.694C19.0841 21.815 19.3381 21.876 19.6331 21.876C20.0061 21.876 20.3031 21.816 20.5261 21.698C20.7471 21.58 20.9141 21.41 21.0261 21.188C21.1421 20.967 21.2241 20.701 21.2721 20.392ZM25.1891 21.899C25.3891 21.899 25.5741 21.858 25.7441 21.776C25.9141 21.694 26.0541 21.582 26.1631 21.439C26.2718 21.2951 26.3367 21.1229 26.3501 20.943H27.1511C27.1347 21.2379 27.0317 21.5214 26.8551 21.758C26.67 22.0118 26.4282 22.219 26.1491 22.363C25.8524 22.5161 25.5229 22.5944 25.1891 22.591C24.8552 22.5985 24.5238 22.5315 24.2191 22.395C23.9531 22.2705 23.7192 22.0868 23.5351 21.858C23.3529 21.6242 23.2156 21.3588 23.1301 21.075C23.0408 20.7687 22.9963 20.4511 22.9981 20.132V19.941C22.9981 19.61 23.0421 19.297 23.1301 19.003C23.2211 18.705 23.3561 18.443 23.5351 18.215C23.7181 17.987 23.9451 17.808 24.2181 17.678C24.4951 17.548 24.8181 17.482 25.1881 17.482C25.5741 17.482 25.9111 17.561 26.1991 17.719C26.4881 17.873 26.7141 18.086 26.8781 18.356C27.0451 18.623 27.1361 18.926 27.1511 19.266H26.3501C26.3374 19.0714 26.278 18.8828 26.1771 18.716C26.075 18.5464 25.9297 18.4069 25.7562 18.3117C25.5826 18.2165 25.3869 18.169 25.1891 18.174C24.9301 18.174 24.7131 18.226 24.5371 18.329C24.3641 18.429 24.2271 18.566 24.1231 18.739C24.0231 18.909 23.9501 19.099 23.9041 19.308C23.8616 19.5163 23.8405 19.7284 23.8411 19.941V20.132C23.8411 20.348 23.8611 20.56 23.9041 20.77C23.9471 20.98 24.0181 21.169 24.1181 21.339C24.2221 21.509 24.3601 21.645 24.5331 21.749C24.7091 21.849 24.9281 21.899 25.1891 21.899ZM28.7911 19.267H30.2711C30.6681 19.267 31.0041 19.337 31.2771 19.477C31.5501 19.613 31.7571 19.803 31.8971 20.046C32.0391 20.286 32.1101 20.559 32.1101 20.866C32.1101 21.093 32.0701 21.306 31.9921 21.507C31.9135 21.7044 31.7923 21.882 31.6371 22.027C31.4705 22.1826 31.2733 22.3018 31.0581 22.377C30.8045 22.4632 30.5378 22.5048 30.2701 22.5H28.1761V17.573H29.0181V21.808H30.2701C30.5131 21.808 30.7081 21.764 30.8531 21.676C30.9904 21.597 31.1001 21.4776 31.1671 21.334C31.2305 21.197 31.2633 21.0479 31.2633 20.897C31.2633 20.7461 31.2305 20.597 31.1671 20.46C31.0997 20.3133 30.9904 20.1898 30.8531 20.105C30.7081 20.008 30.5131 19.959 30.2701 19.959H28.7901L28.7911 19.267ZM33.8631 17.573V22.5H33.0211V17.573H33.8631ZM38.6311 17.573V18.27H36.2491V17.573H38.6311ZM39.3731 17.573V22.5H38.531V17.573H39.3731ZM36.045 17.573H36.8911L36.7641 19.95C36.7472 20.2764 36.7121 20.6015 36.6591 20.924C36.6141 21.204 36.5501 21.444 36.4681 21.644C36.4008 21.8258 36.2989 21.9929 36.1681 22.136C36.0488 22.2607 35.9018 22.3556 35.739 22.413C35.573 22.471 35.3791 22.5 35.1611 22.5H34.8971V21.758L35.0791 21.744C35.1954 21.7386 35.3091 21.7075 35.4121 21.653C35.5089 21.5984 35.5901 21.5199 35.6481 21.425C35.712 21.322 35.7641 21.19 35.8031 21.029C35.8461 20.869 35.878 20.677 35.899 20.455C35.923 20.234 35.9411 19.975 35.9531 19.681L36.045 17.573ZM41.6451 17.573V22.5H40.8031V17.573H41.6451ZM44.8791 17.573L42.5431 20.396H41.3631L41.2361 19.658H42.2011L43.8541 17.573H44.8791ZM43.9721 22.5L42.1601 20.269L42.7021 19.659L45.0421 22.5H43.9721ZM48.6821 21.658V19.12C48.6821 18.926 48.6421 18.757 48.5621 18.615C48.4858 18.4688 48.365 18.3508 48.2171 18.278C48.0378 18.1936 47.8411 18.1528 47.6431 18.159C47.4301 18.159 47.2431 18.196 47.0831 18.269C46.9368 18.3327 46.8084 18.4312 46.7091 18.556C46.6242 18.6653 46.5778 18.7996 46.5771 18.938H45.7351C45.7351 18.762 45.7801 18.588 45.871 18.414C45.962 18.241 46.0931 18.084 46.2631 17.945C46.4361 17.803 46.6431 17.69 46.8831 17.608C47.144 17.5203 47.4178 17.4773 47.6931 17.481C48.0511 17.481 48.3671 17.541 48.6401 17.663C48.916 17.784 49.132 17.968 49.287 18.214C49.445 18.457 49.523 18.762 49.523 19.129V21.424C49.523 21.588 49.537 21.763 49.564 21.948C49.594 22.133 49.639 22.293 49.697 22.426V22.5H48.8171C48.7674 22.3758 48.7338 22.2457 48.7171 22.113C48.694 21.9624 48.6829 21.8103 48.6821 21.658ZM48.8271 19.513L48.8361 20.105H47.9841C47.7441 20.105 47.531 20.125 47.3421 20.164C47.1759 20.1925 47.0159 20.2493 46.8691 20.332C46.7476 20.3992 46.6468 20.4984 46.5777 20.6188C46.5086 20.7392 46.4738 20.8762 46.4771 21.015C46.4771 21.17 46.5121 21.311 46.5821 21.439C46.6521 21.567 46.7561 21.669 46.8961 21.744C47.0391 21.817 47.213 21.854 47.42 21.854C47.6429 21.8569 47.8634 21.8072 48.0635 21.709C48.2636 21.6109 48.4379 21.467 48.5721 21.289C48.6796 21.1578 48.746 20.9978 48.7631 20.829L49.1231 21.234C49.0926 21.385 49.0339 21.5288 48.9501 21.658C48.7284 22.0135 48.4022 22.2915 48.0161 22.454C47.7879 22.5483 47.5429 22.5949 47.2961 22.591C46.9631 22.591 46.6701 22.526 46.4181 22.395C46.1809 22.2753 45.9797 22.0948 45.8351 21.872C45.6978 21.6487 45.6268 21.3911 45.6301 21.129C45.625 20.8879 45.6782 20.6492 45.7851 20.433C45.8881 20.229 46.0371 20.061 46.2311 19.927C46.4251 19.791 46.659 19.687 46.9321 19.617C47.2319 19.5443 47.5396 19.5093 47.8481 19.513H48.8271ZM56.5041 19.709V20.392H53.9001V19.709H56.5041ZM54.077 17.573V22.5H53.2351V17.573H54.077ZM57.187 17.573V22.5H56.34V17.573H57.187ZM61.4501 21.658V19.12C61.4501 18.926 61.41 18.757 61.3311 18.615C61.2546 18.4687 61.1333 18.3506 60.9851 18.278C60.8058 18.1936 60.6091 18.1528 60.411 18.159C60.199 18.159 60.0121 18.196 59.8511 18.269C59.7052 18.3328 59.5771 18.4313 59.4781 18.556C59.3932 18.6653 59.3468 18.7996 59.3461 18.938H58.503C58.503 18.762 58.549 18.588 58.64 18.414C58.731 18.241 58.8621 18.084 59.0321 17.945C59.2166 17.7966 59.4262 17.6824 59.6511 17.608C59.912 17.5203 60.1858 17.4773 60.461 17.481C60.82 17.481 61.1361 17.541 61.409 17.663C61.6851 17.784 61.9011 17.968 62.055 18.214C62.2131 18.457 62.292 18.762 62.292 19.129V21.424C62.292 21.588 62.306 21.763 62.333 21.948C62.363 22.133 62.4081 22.293 62.465 22.426V22.5H61.586C61.5364 22.3758 61.5028 22.2457 61.486 22.113C61.463 21.9624 61.4509 21.8103 61.4501 21.658ZM61.5951 19.513L61.605 20.105H60.753C60.513 20.105 60.299 20.125 60.111 20.164C59.9446 20.1924 59.7842 20.2492 59.6371 20.332C59.5156 20.3992 59.4148 20.4984 59.3457 20.6188C59.2766 20.7392 59.2418 20.8762 59.245 21.015C59.2439 21.1629 59.28 21.3087 59.35 21.439C59.42 21.567 59.5251 21.669 59.6651 21.744C59.807 21.817 59.982 21.854 60.188 21.854C60.4109 21.8569 60.6314 21.8072 60.8315 21.709C61.0316 21.6109 61.2059 21.467 61.34 21.289C61.448 21.1579 61.5147 20.9979 61.5321 20.829L61.892 21.234C61.8613 21.385 61.8022 21.5289 61.718 21.658C61.4969 22.0134 61.1709 22.2915 60.785 22.454C60.5569 22.5483 60.3119 22.5949 60.065 22.591C59.731 22.591 59.438 22.526 59.187 22.395C58.9499 22.2752 58.7488 22.0948 58.604 21.872C58.4668 21.6487 58.3958 21.3911 58.399 21.129C58.3937 20.888 58.4465 20.6493 58.5531 20.433C58.6571 20.229 58.806 20.061 59 19.927C59.194 19.791 59.4281 19.687 59.701 19.617C60.0005 19.5444 60.3079 19.5094 60.6161 19.513H61.5951Z" fill="white"/>
</g>
<defs>
<clipPath id="clip0_106_112">
<rect width="135" height="38" fill="white" transform="translate(0.5 0.5)"/>
</clipPath>
</defs>
</svg>
