<svg width="135" height="39" viewBox="0 0 135 39" fill="none" xmlns="http://www.w3.org/2000/svg">
<g id="App store" clip-path="url(#clip0_106_97)">
<path id="Vector" d="M130.2 38.5H4.7C2.1 38.5 0 36.505 0 34.035V4.965C0 2.495 2.1 0.5 4.7 0.5H130.2C132.8 0.5 135 2.495 135 4.965V33.94C135 36.505 132.8 38.5 130.2 38.5Z" fill="black"/>
<path id="Vector_2" d="M134 34.035C134 36.03 132.3 37.645 130.2 37.645H4.70002C2.60002 37.645 0.900024 36.03 0.900024 34.035V4.96501C0.900024 2.97001 2.60002 1.35501 4.70002 1.35501H130.2C132.3 1.35501 134 2.97001 134 4.96501V34.035Z" fill="black"/>
<path id="Vector_3" d="M30.1 19.31C30.1 16.27 32.7 14.75 32.9 14.655C31.4 12.565 29 12.28 28.2 12.28C26.2 12.09 24.3 13.42 23.3 13.42C22.3 13.42 20.7 12.28 19.1 12.375C17 12.375 15 13.61 13.9 15.415C11.6 19.12 13.3 24.63 15.5 27.67C16.6 29.19 17.9 30.805 19.5 30.71C21.1 30.615 21.7 29.76 23.7 29.76C25.6 29.76 26.2 30.71 27.9 30.71C29.6 30.71 30.7 29.19 31.8 27.765C33.1 26.055 33.6 24.44 33.6 24.345C33.5 24.155 30.2 22.92 30.1 19.31ZM26.9 10.285C27.8 9.24001 28.4 7.81501 28.2 6.39001C26.9 6.48501 25.4 7.24501 24.4 8.19501C23.6 9.05001 22.9 10.57 23.1 11.9C24.6 12.09 26 11.33 26.9 10.285ZM53.6 30.425H51.3L50.1 26.72H45.8L44.6 30.425H42.4L46.7 17.79H49.3L53.6 30.425ZM49.8 25.2L48.7 21.875C48.6 21.495 48.4 20.735 48 19.5C47.9 20.07 47.7 20.83 47.4 21.875L46.2 25.2H49.8ZM64.7 25.77C64.7 27.29 64.3 28.525 63.4 29.475C62.6 30.235 61.6 30.71 60.5 30.71C59.2 30.71 58.3 30.235 57.8 29.38V34.225H55.7V24.345C55.7 23.395 55.7 22.35 55.6 21.305H57.5L57.6 22.73C58.3 21.685 59.4 21.115 60.8 21.115C61.9 21.115 62.9 21.495 63.6 22.35C64.3 23.205 64.7 24.345 64.7 25.77ZM62.5 25.865C62.5 25.01 62.3 24.25 61.9 23.68C61.4 23.11 60.8 22.825 60 22.825C59.5 22.825 59 23.015 58.6 23.3C58.2 23.68 57.9 24.06 57.8 24.63C57.7 24.915 57.7 25.105 57.7 25.2V26.72C57.7 27.385 57.9 27.955 58.3 28.43C58.7 28.905 59.3 29.095 60 29.095C60.8 29.095 61.4 28.81 61.9 28.24C62.3 27.575 62.5 26.815 62.5 25.865ZM75.7 25.77C75.7 27.29 75.3 28.525 74.4 29.475C73.6 30.235 72.6 30.71 71.5 30.71C70.2 30.71 69.3 30.235 68.8 29.38V34.225H66.7V24.345C66.7 23.395 66.7 22.35 66.6 21.305H68.5L68.6 22.73C69.3 21.685 70.4 21.115 71.8 21.115C72.9 21.115 73.9 21.495 74.6 22.35C75.3 23.205 75.7 24.345 75.7 25.77ZM73.5 25.865C73.5 25.01 73.3 24.25 72.9 23.68C72.4 23.11 71.8 22.825 71 22.825C70.5 22.825 70 23.015 69.6 23.3C69.2 23.68 68.9 24.06 68.8 24.63C68.7 24.915 68.7 25.105 68.7 25.2V26.72C68.7 27.385 68.9 27.955 69.3 28.43C69.7 28.905 70.3 29.095 71 29.095C71.8 29.095 72.4 28.81 72.9 28.24C73.3 27.575 73.5 26.815 73.5 25.865ZM88 26.91C88 27.955 87.6 28.905 86.8 29.57C85.9 30.33 84.7 30.71 83.2 30.71C81.8 30.71 80.6 30.425 79.8 29.95L80.3 28.24C81.2 28.81 82.3 29.095 83.4 29.095C84.2 29.095 84.8 28.905 85.3 28.62C85.7 28.24 86 27.86 86 27.195C86 26.72 85.8 26.245 85.4 25.865C85 25.485 84.4 25.2 83.6 24.915C81.3 24.06 80.1 22.92 80.1 21.305C80.1 20.26 80.5 19.405 81.3 18.74C82.1 18.075 83.2 17.79 84.6 17.79C85.8 17.79 86.8 17.98 87.6 18.36L87 19.88C86.2 19.5 85.4 19.31 84.5 19.31C83.7 19.31 83.2 19.5 82.7 19.88C82.3 20.165 82.2 20.545 82.2 21.02C82.2 21.495 82.4 21.97 82.8 22.255C83.2 22.54 83.8 22.92 84.7 23.205C85.8 23.68 86.7 24.155 87.2 24.725C87.8 25.295 88 26.055 88 26.91ZM95.1 22.825H92.8V27.29C92.8 28.43 93.2 29 94 29C94.4 29 94.7 29 94.9 28.905L95 30.425C94.6 30.615 94 30.615 93.3 30.615C92.5 30.615 91.8 30.33 91.3 29.855C90.8 29.38 90.6 28.525 90.6 27.385V22.825H89.2V21.305H90.6V19.595L92.7 19.025V21.305H95L95.1 22.825ZM105.7 25.77C105.7 27.195 105.3 28.335 104.4 29.19C103.5 30.14 102.3 30.615 100.9 30.615C99.5 30.615 98.4 30.14 97.5 29.285C96.6 28.43 96.2 27.29 96.2 25.96C96.2 24.535 96.6 23.395 97.5 22.445C98.4 21.59 99.5 21.115 101 21.115C102.4 21.115 103.5 21.59 104.4 22.445C105.3 23.3 105.7 24.44 105.7 25.77ZM103.5 25.865C103.5 25.01 103.3 24.345 102.9 23.68C102.5 22.92 101.8 22.635 101 22.635C100.1 22.635 99.5 23.015 99 23.68C98.6 24.25 98.4 25.01 98.4 25.865C98.4 26.72 98.6 27.385 99 28.05C99.5 28.81 100.1 29.095 100.9 29.095C101.7 29.095 102.4 28.715 102.8 27.955C103.3 27.385 103.5 26.72 103.5 25.865ZM112.6 23.11C112.4 23.11 112.2 23.015 111.9 23.015C111.1 23.015 110.6 23.3 110.2 23.87C109.8 24.345 109.7 24.915 109.7 25.675V30.425H107.6V24.155C107.6 23.11 107.6 22.16 107.5 21.305H109.4L109.5 23.015H109.6C109.8 22.445 110.2 21.97 110.7 21.59C111.2 21.305 111.7 21.115 112.2 21.115H112.7L112.6 23.11ZM122.2 25.485C122.2 25.865 122.2 26.15 122.1 26.435H115.7C115.7 27.29 116 28.05 116.6 28.525C117.1 28.905 117.8 29.19 118.7 29.19C119.6 29.19 120.5 29 121.3 28.715L121.6 30.14C120.7 30.52 119.6 30.71 118.4 30.71C116.9 30.71 115.7 30.33 114.9 29.475C114.1 28.62 113.6 27.575 113.6 26.15C113.6 24.82 114 23.585 114.8 22.73C115.6 21.78 116.7 21.305 118.2 21.305C119.6 21.305 120.6 21.78 121.3 22.73C121.9 23.3 122.2 24.345 122.2 25.485ZM120.1 24.915C120.1 24.345 120 23.775 119.7 23.395C119.3 22.825 118.8 22.54 118 22.54C117.3 22.54 116.7 22.825 116.3 23.395C115.9 23.87 115.7 24.345 115.7 25.01L120.1 24.915ZM46.847 8.55201C46.847 8.20001 46.718 7.92001 46.46 7.71402C46.205 7.50401 45.846 7.40001 45.381 7.40001C44.993 7.40001 44.666 7.50801 44.402 7.72301C44.141 7.93601 44.01 8.20002 44.01 8.51502H43.136C43.136 8.16302 43.232 7.84801 43.423 7.56801C43.6278 7.28069 43.9082 7.05571 44.233 6.91802C44.594 6.75657 44.9856 6.67537 45.381 6.68001C46.121 6.68001 46.697 6.84702 47.107 7.18102C47.517 7.51201 47.722 7.97401 47.722 8.56601C47.722 8.87201 47.628 9.15101 47.44 9.40301C47.2345 9.66796 46.9627 9.87391 46.652 10C47.432 10.261 47.822 10.779 47.822 11.553C47.822 12.148 47.6 12.62 47.157 12.969C46.714 13.319 46.122 13.493 45.381 13.493C44.941 13.493 44.541 13.415 44.179 13.26C43.8426 13.1198 43.5523 12.888 43.341 12.591C43.141 12.303 43.041 11.96 43.041 11.561H43.915C43.915 11.911 44.053 12.203 44.329 12.436C44.605 12.666 44.956 12.782 45.381 12.782C45.858 12.782 46.237 12.672 46.52 12.45C46.6567 12.3486 46.7669 12.2158 46.8414 12.0628C46.9159 11.9098 46.9525 11.7411 46.948 11.571C46.948 10.794 46.467 10.398 45.504 10.383H44.684V9.66301H45.5C45.943 9.65301 46.278 9.55301 46.506 9.36301C46.734 9.17101 46.847 8.90101 46.847 8.55201ZM51.893 13.402C51.844 13.305 51.805 13.132 51.775 12.882C51.383 13.289 50.915 13.492 50.372 13.492C49.886 13.492 49.487 13.356 49.174 13.082C49.0244 12.9526 48.9053 12.7917 48.825 12.6109C48.7448 12.4301 48.7055 12.2338 48.71 12.036C48.71 11.522 48.904 11.125 49.293 10.842C49.684 10.557 50.233 10.414 50.941 10.414H51.761V10.027C51.761 9.73302 51.673 9.49902 51.497 9.32601C51.321 9.15001 51.061 9.06202 50.718 9.06202C50.418 9.06202 50.166 9.13801 49.962 9.29001C49.759 9.44101 49.657 9.62502 49.657 9.84001H48.81C48.81 9.59502 48.897 9.35801 49.07 9.13001C49.246 8.90001 49.483 8.71701 49.78 8.58401C50.08 8.45001 50.41 8.38401 50.768 8.38401C51.336 8.38401 51.781 8.52601 52.102 8.81101C52.424 9.09401 52.592 9.48401 52.603 9.98101V12.249C52.603 12.702 52.661 13.062 52.776 13.329V13.402H51.893ZM50.495 12.759C50.759 12.759 51.01 12.691 51.246 12.555C51.468 12.434 51.6477 12.248 51.761 12.022V11.01H51.101C50.069 11.01 49.552 11.312 49.552 11.916C49.552 12.18 49.64 12.386 49.816 12.536C49.993 12.684 50.219 12.759 50.495 12.759ZM57.107 9.17101H54.835V13.401H53.988V8.47601H57.107V9.17201V9.17101ZM62.002 10.993C62.002 11.743 61.831 12.347 61.488 12.805C61.145 13.264 60.68 13.493 60.094 13.493C59.496 13.493 59.026 13.303 58.683 12.923V15.296H57.84V8.47501H58.61L58.65 9.02101C58.994 8.59601 59.47 8.38301 60.08 8.38301C60.673 8.38301 61.14 8.60702 61.483 9.05302C61.829 9.49902 62.003 10.12 62.003 10.915L62.002 10.993ZM61.16 10.897C61.16 10.342 61.041 9.90302 60.805 9.58102C60.568 9.25902 60.243 9.09801 59.83 9.09801C59.32 9.09801 58.938 9.32502 58.683 9.77702V12.131C58.935 12.581 59.32 12.805 59.839 12.805C60.243 12.805 60.563 12.645 60.8 12.327C61.04 12.005 61.16 11.528 61.16 10.897ZM64.634 12.167L65.782 8.47501H66.683L64.703 14.162C64.396 14.982 63.909 15.392 63.241 15.392L63.081 15.378L62.767 15.318V14.636L62.995 14.654C63.28 14.654 63.502 14.596 63.66 14.481C63.82 14.366 63.953 14.155 64.056 13.848L64.243 13.347L62.485 8.47501H63.405L64.635 12.168L64.634 12.167ZM70.149 9.82201C70.1528 9.71639 70.1307 9.61144 70.0847 9.51628C70.0387 9.42113 69.9702 9.33865 69.885 9.27601C69.709 9.13901 69.467 9.07101 69.161 9.07101C68.863 9.07101 68.614 9.14802 68.414 9.30302C68.216 9.45802 68.118 9.64002 68.118 9.85002H67.28C67.28 9.42202 67.46 9.07102 67.817 8.79802C68.176 8.52502 68.623 8.38801 69.161 8.38801C69.737 8.38801 70.187 8.51201 70.509 8.76101C70.83 9.00701 70.991 9.35901 70.991 9.81801C70.991 10.039 70.924 10.243 70.791 10.428C70.6441 10.6238 70.4472 10.7765 70.221 10.87C70.795 11.064 71.082 11.447 71.082 12.017C71.082 12.47 70.908 12.827 70.559 13.092C70.209 13.356 69.743 13.488 69.161 13.488C68.593 13.488 68.124 13.35 67.754 13.074C67.386 12.794 67.203 12.418 67.203 11.944H68.04C68.04 12.184 68.147 12.391 68.36 12.564C68.575 12.734 68.842 12.819 69.16 12.819C69.482 12.819 69.742 12.744 69.94 12.596C70.0328 12.531 70.1083 12.4443 70.1597 12.3433C70.2111 12.2423 70.237 12.1303 70.235 12.017C70.235 11.741 70.152 11.544 69.985 11.425C69.821 11.304 69.565 11.243 69.215 11.243H68.373V10.533H69.288C69.862 10.518 70.148 10.281 70.148 9.82301L70.149 9.82201ZM75.363 8.47501H76.205V13.402H75.363V9.80901L73.091 13.402H72.248V8.47501H73.091V12.072L75.363 8.47501ZM81.219 9.15801H79.566V13.402H78.723V9.15801H77.103V8.47501H81.219V9.15801ZM83.719 13.493C83.051 13.493 82.508 13.274 82.089 12.837C81.669 12.397 81.46 11.809 81.46 11.075V10.92C81.46 10.431 81.553 9.99501 81.738 9.61301C81.926 9.22701 82.188 8.92702 82.521 8.71102C82.845 8.49624 83.2253 8.38212 83.614 8.38301C84.254 8.38301 84.753 8.59401 85.108 9.01601C85.463 9.43801 85.64 10.042 85.64 10.829V11.179H82.303C82.315 11.665 82.456 12.059 82.726 12.359C82.999 12.656 83.346 12.805 83.764 12.805C84.062 12.805 84.314 12.745 84.52 12.623C84.7303 12.4988 84.9144 12.3347 85.062 12.14L85.577 12.541C85.164 13.175 84.545 13.493 83.719 13.493ZM83.614 9.07601C83.274 9.07601 82.989 9.20002 82.758 9.44902C82.528 9.69502 82.385 10.041 82.33 10.487H84.798V10.423C84.774 9.99502 84.658 9.66501 84.452 9.43101C84.246 9.19401 83.966 9.07601 83.614 9.07601ZM89.01 13.402V8.47501H90.932C91.588 8.47501 92.09 8.59001 92.439 8.82101C92.791 9.04801 92.968 9.38401 92.968 9.82701C92.968 10.055 92.899 10.261 92.762 10.447C92.626 10.628 92.424 10.768 92.157 10.865C92.454 10.935 92.693 11.072 92.872 11.275C93.054 11.478 93.145 11.721 93.145 12.004C93.145 12.456 92.978 12.802 92.645 13.042C92.313 13.282 91.845 13.402 91.237 13.402H89.01ZM89.853 11.239V12.723H91.246C91.598 12.723 91.861 12.658 92.034 12.527C92.1199 12.4642 92.189 12.3811 92.235 12.2851C92.2811 12.1892 92.3027 12.0833 92.298 11.977C92.298 11.485 91.937 11.239 91.214 11.239H89.853ZM89.853 10.565H90.941C91.731 10.565 92.125 10.334 92.125 9.87201C92.125 9.41101 91.752 9.17201 91.005 9.15801H89.853V10.565Z" fill="white"/>
</g>
<defs>
<clipPath id="clip0_106_97">
<rect width="135" height="38" fill="white" transform="translate(0 0.5)"/>
</clipPath>
</defs>
</svg>
