<svg width="135" height="39" viewBox="0 0 135 39" fill="none" xmlns="http://www.w3.org/2000/svg">
<g id="Google play" clip-path="url(#clip0_106_101)">
<path id="Vector" d="M130 38.5H5C2.2 38.5 0 36.315 0 33.75V5.25C0 2.59 2.3 0.5 5 0.5H130C132.8 0.5 135 2.685 135 5.25V33.75C135 36.315 132.8 38.5 130 38.5Z" fill="black"/>
<path id="Vector_2" d="M68.1 21.21C65.7 21.21 63.8 22.92 63.8 25.294C63.8 27.574 65.7 29.379 68.1 29.379C70.5 29.379 72.4 27.669 72.4 25.294C72.4 22.824 70.5 21.21 68.1 21.21ZM68.1 27.67C66.8 27.67 65.7 26.624 65.7 25.2C65.7 23.774 66.8 22.73 68.1 22.73C69.4 22.73 70.5 23.68 70.5 25.2C70.5 26.624 69.4 27.67 68.1 27.67ZM58.8 21.21C56.4 21.21 54.5 22.92 54.5 25.294C54.5 27.574 56.4 29.379 58.8 29.379C61.2 29.379 63.1 27.669 63.1 25.294C63.1 22.824 61.2 21.21 58.8 21.21ZM58.8 27.67C57.5 27.67 56.4 26.624 56.4 25.2C56.4 23.774 57.5 22.73 58.8 22.73C60.1 22.73 61.2 23.68 61.2 25.2C61.2 26.624 60.1 27.67 58.8 27.67ZM47.7 22.444V24.154H52C51.9 25.104 51.5 25.864 51 26.339C50.4 26.909 49.4 27.574 47.7 27.574C45 27.574 43 25.579 43 23.014C43 20.449 45.1 18.454 47.7 18.454C49.1 18.454 50.2 19.024 51 19.689L52.3 18.454C51.2 17.504 49.8 16.744 47.8 16.744C44.2 16.744 41.1 19.594 41.1 23.014C41.1 26.434 44.2 29.284 47.8 29.284C49.8 29.284 51.2 28.714 52.4 27.479C53.6 26.339 54 24.724 54 23.489C54 23.109 54 22.729 53.9 22.444H47.7ZM93.1 23.774C92.7 22.824 91.7 21.209 89.5 21.209C87.3 21.209 85.5 22.824 85.5 25.294C85.5 27.574 87.3 29.379 89.7 29.379C91.6 29.379 92.8 28.239 93.2 27.574L91.8 26.624C91.3 27.289 90.7 27.764 89.7 27.764C88.7 27.764 88.1 27.384 87.6 26.529L93.3 24.249L93.1 23.774ZM87.3 25.104C87.3 23.584 88.6 22.729 89.5 22.729C90.2 22.729 90.9 23.109 91.1 23.584L87.3 25.104ZM82.6 29H84.5V17.124H82.6V29ZM79.6 22.065C79.1 21.59 78.3 21.115 77.3 21.115C75.2 21.115 73.2 22.92 73.2 25.2C73.2 27.48 75.1 29.19 77.3 29.19C78.3 29.19 79.1 28.715 79.5 28.24H79.6V28.81C79.6 30.33 78.7 31.185 77.3 31.185C76.2 31.185 75.4 30.425 75.2 29.76L73.6 30.425C74.1 31.47 75.3 32.8 77.4 32.8C79.6 32.8 81.4 31.565 81.4 28.62V21.4H79.6V22.065ZM77.4 27.67C76.1 27.67 75 26.625 75 25.2C75 23.775 76.1 22.73 77.4 22.73C78.7 22.73 79.7 23.775 79.7 25.2C79.7 26.625 78.7 27.67 77.4 27.67ZM101.8 17.125H97.3V29H99.2V24.535H101.8C103.9 24.535 105.9 23.11 105.9 20.83C105.9 18.55 103.9 17.125 101.8 17.125ZM101.9 22.825H99.2V18.74H101.9C103.3 18.74 104.1 19.88 104.1 20.735C104 21.78 103.2 22.825 101.9 22.825ZM113.4 21.115C112 21.115 110.6 21.685 110.1 22.92L111.8 23.585C112.2 22.92 112.8 22.73 113.5 22.73C114.5 22.73 115.4 23.3 115.5 24.25V24.345C115.2 24.155 114.4 23.87 113.6 23.87C111.8 23.87 110 24.82 110 26.53C110 28.145 111.5 29.19 113.1 29.19C114.4 29.19 115 28.62 115.5 28.05H115.6V29H117.4V24.44C117.2 22.35 115.5 21.115 113.4 21.115ZM113.2 27.67C112.6 27.67 111.7 27.385 111.7 26.625C111.7 25.675 112.8 25.39 113.7 25.39C114.5 25.39 114.9 25.58 115.4 25.77C115.2 26.91 114.2 27.67 113.2 27.67ZM123.7 21.4L121.6 26.53H121.5L119.3 21.4H117.3L120.6 28.62L118.7 32.61H120.6L125.7 21.4H123.7ZM106.9 29H108.8V17.124H106.9V29Z" fill="white"/>
<path id="Vector_3" d="M10.4 7.62499C10.1 7.90999 9.90002 8.38499 9.90002 8.95499V29.95C9.90002 30.52 10.1 30.994 10.4 31.28L10.5 31.375L22.9 19.595V19.404L10.4 7.62499Z" fill="url(#paint0_linear_106_101)"/>
<path id="Vector_4" d="M27 23.586L22.9 19.691V19.406L27 15.51L27.1 15.605L32 18.265C33.4 19.025 33.4 20.26 32 21.02L27 23.585V23.586Z" fill="url(#paint1_linear_106_101)"/>
<path id="Vector_5" d="M27.1 23.49L22.9 19.5L10.4 31.375C10.9 31.849 11.6 31.849 12.5 31.47L27.1 23.49Z" fill="url(#paint2_linear_106_101)"/>
<path id="Vector_6" d="M27.1 15.51L12.5 7.625C11.6 7.15 10.9 7.245 10.4 7.72L22.9 19.5L27.1 15.51Z" fill="url(#paint3_linear_106_101)"/>
<path id="Vector_7" opacity="0.2" d="M27 23.395L12.5 31.185C11.7 31.66 11 31.565 10.5 31.185L10.4 31.28L10.5 31.375C11 31.755 11.7 31.85 12.5 31.375L27 23.395Z" fill="white"/>
<path id="Vector_8" opacity="0.12" d="M10.4 31.185C10.1 30.9 10 30.425 10 29.855V29.95C10 30.52 10.2 30.995 10.5 31.28V31.185H10.4ZM32 20.735L27 23.395L27.1 23.49L32 20.83C32.7 20.45 33 19.975 33 19.5C33 19.974 32.6 20.355 32 20.735Z" fill="white"/>
<path id="Vector_9" opacity="0.25" d="M12.5 7.72001L32 18.265C32.6 18.645 33 19.025 33 19.5C33 19.025 32.7 18.55 32 18.17L12.5 7.62501C11.1 6.86501 10 7.53001 10 9.05001V9.14501C10 7.62501 11.1 6.96001 12.5 7.72001Z" fill="#23272E"/>
<path id="Vector_10" d="M42.1 14.085H41.4V12.185H42C42.5 11.805 42.8 11.045 42.8 9.99999V7.14999H46.8V12.185H47.5V14.085H46.8V12.85H42.2V14.085H42.1ZM43.5 9.99999C43.5 10.855 43.3 11.615 42.9 12.185H45.9V7.90999H43.4V9.99999H43.5ZM53.4 12.09C52.8 12.66 52.1 12.945 51.2 12.945C50.3 12.945 49.6 12.66 49 12.09C48.4 11.52 48.1 10.855 48.1 9.99999C48.1 9.14499 48.4 8.47999 49 7.90999C49.6 7.33999 50.3 7.05499 51.2 7.05499C52.1 7.05499 52.8 7.33999 53.4 7.90999C54 8.47999 54.3 9.14499 54.3 9.99999C54.3 10.855 54 11.52 53.4 12.09ZM49.6 11.615C50 11.995 50.6 12.28 51.2 12.28C51.8 12.28 52.4 12.09 52.8 11.615C53.2 11.235 53.5 10.665 53.5 9.99999C53.5 9.33499 53.3 8.76499 52.8 8.38499C52.4 8.00499 51.8 7.71999 51.2 7.71999C50.6 7.71999 50 7.90999 49.6 8.38499C49.2 8.76499 48.9 9.33499 48.9 9.99999C48.9 10.665 49.1 11.235 49.6 11.615ZM58.2 12.945C57.3 12.945 56.6 12.66 56 12.09C55.4 11.52 55.1 10.855 55.1 9.99999C55.1 9.14499 55.4 8.47999 56 7.90999C56.6 7.33999 57.3 7.05499 58.2 7.05499C59.1 7.05499 59.8 7.33999 60.4 8.00499L59.9 8.47999C59.5 8.00499 58.9 7.71999 58.2 7.71999C57.5 7.71999 57 7.90999 56.5 8.38499C56 8.76499 55.8 9.33499 55.8 9.99999C55.8 10.665 56 11.235 56.5 11.615C56.9 11.995 57.5 12.28 58.2 12.28C58.9 12.28 59.5 11.995 60 11.425L60.5 11.9C60.2 12.185 59.9 12.47 59.5 12.66C59.1 12.85 58.7 12.945 58.2 12.945ZM63.701 12.85H62.901V7.81499H61.201V7.14999H65.301V7.81499H63.601V12.85H63.701ZM70.6 7.14999L68.3 11.995C68 12.66 67.5 13.04 66.9 13.04C66.7 13.04 66.5 13.04 66.3 12.945L66.5 12.28C66.6 12.375 66.8 12.375 66.9 12.375C67.1 12.375 67.2 12.375 67.3 12.28C67.4 12.185 67.5 12.09 67.6 11.9L67.8 11.425L65.8 7.24499H66.7L68.2 10.475L69.6 7.24499H70.6V7.14999ZM71.5 12.85V7.14999H75.8V12.85H75V7.81499H72.2V12.85H71.5ZM77.201 12.85V7.14999H78.001V9.61999H81.001V7.14999H81.801V12.85H81.001V10.285H78.001V12.85H77.201ZM88.1 12.09C87.5 12.66 86.8 12.945 85.9 12.945C85 12.945 84.3 12.66 83.7 12.09C83.1 11.52 82.8 10.855 82.8 9.99999C82.8 9.14499 83.1 8.47999 83.7 7.90999C84.3 7.33999 85 7.05499 85.9 7.05499C86.8 7.05499 87.5 7.33999 88.1 7.90999C88.7 8.47999 89 9.14499 89 9.99999C88.9 10.855 88.6 11.52 88.1 12.09ZM84.2 11.615C84.6 11.995 85.2 12.28 85.8 12.28C86.4 12.28 87 12.09 87.4 11.615C87.8 11.235 88.1 10.665 88.1 9.99999C88.1 9.33499 87.9 8.76499 87.4 8.38499C87 8.00499 86.4 7.71999 85.8 7.71999C85.2 7.71999 84.6 7.90999 84.2 8.38499C83.8 8.76499 83.5 9.33499 83.5 9.99999C83.5 10.665 83.8 11.235 84.2 11.615ZM92.1 12.85V7.14999H94.3C94.8 7.14999 95.2 7.33999 95.5 7.62499C95.8 7.90999 96 8.28999 96 8.76499C96 9.04999 95.9 9.23999 95.8 9.52499C95.7 9.71499 95.5 9.90499 95.2 9.99999C95.5 10.095 95.7 10.285 95.9 10.475C96.1 10.665 96.2 10.95 96.2 11.33C96.2 11.805 96 12.185 95.7 12.47C95.3 12.755 94.9 12.945 94.4 12.945H92.1V12.85ZM92.9 9.61999H94.3C94.6 9.61999 94.8 9.52499 95 9.33499C95.2 9.14499 95.3 8.95499 95.3 8.76499C95.3 8.57499 95.2 8.38499 95 8.19499C94.9098 8.10114 94.8009 8.02727 94.6803 7.97818C94.5597 7.92908 94.4302 7.90585 94.3 7.90999H92.9V9.61999ZM92.9 12.185H94.5C94.8 12.185 95 12.09 95.2 11.9C95.4 11.71 95.5 11.52 95.5 11.235C95.4873 10.9835 95.3802 10.746 95.2 10.57C95.1098 10.4761 95.0009 10.4023 94.8803 10.3532C94.7597 10.3041 94.6301 10.2809 94.5 10.285H93V12.185H92.9Z" fill="white"/>
</g>
<defs>
<linearGradient id="paint0_linear_106_101" x1="21.8" y1="8.77399" x2="5.87803" y2="25.534" gradientUnits="userSpaceOnUse">
<stop stop-color="#00A0FF"/>
<stop offset="0.007" stop-color="#00A1FF"/>
<stop offset="0.26" stop-color="#00BEFF"/>
<stop offset="0.512" stop-color="#00D2FF"/>
<stop offset="0.76" stop-color="#00DFFF"/>
<stop offset="1" stop-color="#00E3FF"/>
</linearGradient>
<linearGradient id="paint1_linear_106_101" x1="33.835" y1="19.502" x2="9.63802" y2="19.502" gradientUnits="userSpaceOnUse">
<stop stop-color="#FFE000"/>
<stop offset="0.409" stop-color="#FFBD00"/>
<stop offset="0.775" stop-color="#FFA500"/>
<stop offset="1" stop-color="#FF9C00"/>
</linearGradient>
<linearGradient id="paint2_linear_106_101" x1="24.827" y1="21.681" x2="3.23503" y2="44.409" gradientUnits="userSpaceOnUse">
<stop stop-color="#FF3A44"/>
<stop offset="1" stop-color="#C31162"/>
</linearGradient>
<linearGradient id="paint3_linear_106_101" x1="7.29802" y1="0.667003" x2="16.939" y2="10.817" gradientUnits="userSpaceOnUse">
<stop stop-color="#32A071"/>
<stop offset="0.069" stop-color="#2DA771"/>
<stop offset="0.476" stop-color="#15CF74"/>
<stop offset="0.801" stop-color="#06E775"/>
<stop offset="1" stop-color="#00F076"/>
</linearGradient>
<clipPath id="clip0_106_101">
<rect width="135" height="38" fill="white" transform="translate(0 0.5)"/>
</clipPath>
</defs>
</svg>
