<svg width="33" height="33" viewBox="0 0 33 33" fill="none" xmlns="http://www.w3.org/2000/svg">
<g id="Frame">
<g id="Group 1">
<path id="Vector" d="M16.4231 6.26923V10.0385M16.4231 6.26923C16.4231 5.52375 16.6442 4.79501 17.0583 4.17516C17.4725 3.55531 18.0612 3.0722 18.7499 2.78692C19.4387 2.50163 20.1965 2.42699 20.9277 2.57243C21.6588 2.71786 22.3305 3.07685 22.8576 3.60398C23.3847 4.13112 23.7437 4.80273 23.8891 5.53389C24.0346 6.26505 23.9599 7.02292 23.6747 7.71165C23.3894 8.40039 22.9063 8.98906 22.2864 9.40323C21.6666 9.8174 20.9378 10.0385 20.1923 10.0385H16.4231M16.4231 6.26923C16.4231 5.52375 16.202 4.79501 15.7879 4.17516C15.3737 3.55531 14.785 3.0722 14.0963 2.78692C13.4076 2.50163 12.6497 2.42699 11.9185 2.57243C11.1874 2.71786 10.5158 3.07685 9.98863 3.60398C9.46149 4.13112 9.10251 4.80273 8.95707 5.53389C8.81163 6.26505 8.88628 7.02292 9.17156 7.71165C9.45684 8.40039 9.93996 8.98906 10.5598 9.40323C11.1797 9.8174 11.9084 10.0385 12.6539 10.0385H16.4231" stroke="#F5C861" stroke-width="2" stroke-miterlimit="10" stroke-linecap="round"/>
<path id="Vector_2" d="M27.1923 10.0385H5.65385C4.46431 10.0385 3.5 11.0028 3.5 12.1923V15.4231C3.5 16.6126 4.46431 17.5769 5.65385 17.5769H27.1923C28.3818 17.5769 29.3462 16.6126 29.3462 15.4231V12.1923C29.3462 11.0028 28.3818 10.0385 27.1923 10.0385Z" stroke="#F5C861" stroke-width="2" stroke-linecap="round" stroke-linejoin="round"/>
<path id="Vector_3" d="M27.1923 17.5769V27.2692C27.1923 28.1261 26.8519 28.9478 26.246 29.5537C25.6401 30.1596 24.8184 30.5 23.9615 30.5H8.88458C8.02772 30.5 7.20597 30.1596 6.60008 29.5537C5.99419 28.9478 5.65381 28.1261 5.65381 27.2692V17.5769M16.423 10.0385V30.5" stroke="#F5C861" stroke-width="2" stroke-linecap="round" stroke-linejoin="round"/>
</g>
</g>
</svg>
