<svg width="33" height="33" viewBox="0 0 33 33" fill="none" xmlns="http://www.w3.org/2000/svg">
<g id="Frame" clip-path="url(#clip0_106_72)">
<path id="Vector" d="M21.1833 1.56697L6.5 19.7143H15.0714L12.9614 31.3145C12.9574 31.3373 12.9584 31.3606 12.9644 31.383C12.9704 31.4053 12.9812 31.426 12.9961 31.4437C13.011 31.4614 13.0295 31.4756 13.0505 31.4853C13.0715 31.495 13.0943 31.5001 13.1174 31.5C13.142 31.5 13.1662 31.4942 13.1882 31.4832C13.2102 31.4721 13.2293 31.4561 13.244 31.4364L27.9286 13.2857H19.3571L21.4772 1.68415C21.4801 1.66104 21.478 1.63758 21.4711 1.61535C21.4642 1.59311 21.4526 1.5726 21.4371 1.55518C21.4217 1.53776 21.4027 1.52383 21.3814 1.51431C21.3602 1.5048 21.3371 1.49992 21.3138 1.5C21.2883 1.5001 21.2632 1.50622 21.2405 1.51786C21.2178 1.52949 21.1982 1.54632 21.1833 1.56697Z" stroke="#1ACFAA" stroke-width="2" stroke-linecap="round" stroke-linejoin="round"/>
</g>
<defs>
<clipPath id="clip0_106_72">
<rect width="32" height="32" fill="white" transform="translate(0.83252 0.486229)"/>
</clipPath>
</defs>
</svg>
